HIERARCHY
ROOT Hips
{
  OFFSET 61.6491 93.7818 -163.716
  CHANNELS 6 Xposition Yposition Zposition Zrotation Xrotation Yrotation
  JOINT RightUpLeg
  {
    OFFSET -8.9458 -8.66707 0.101652
    CHANNELS 3 Zrotation Xrotation Yrotation
    JOINT RightLeg
    {
      OFFSET 0 -44.4227 1.3727
      CHANNELS 3 Zrotation Xrotation Yrotation
      JOINT RightFoot
      {
        OFFSET 0.253549 -42.0924 -1.46059
        CHANNELS 3 Zrotation Xrotation Yrotation
        JOINT RightToes
        {
          OFFSET 0.04 -4.41509 8.4991
          CHANNELS 3 Zrotation Xrotation Yrotation
          End Site
          {
            OFFSET -0.08 -0.137448 9.77979
          }
        }
      }
    }
  }
  JOINT Spine
  {
    OFFSET 0 11.8905 0
    CHANNELS 3 Zrotation Xrotation Yrotation
    JOINT Spine1
    {
      OFFSET 0 25.6574 0.127663
      CHANNELS 3 Zrotation Xrotation Yrotation
      JOINT HEad
      {
        OFFSET 0 8.73416 0.011341
        CHANNELS 3 Zrotation Xrotation Yrotation
        End Site
        {
          OFFSET -0.29 12.7742 2.51395
        }
      }
      JOINT LeftShoulder1
      {
        OFFSET 8.99 -0.362252 -0.22
        CHANNELS 3 Zrotation Xrotation Yrotation
        JOINT LeftArm
        {
          OFFSET 10.2827 -0.00338 0.322123
          CHANNELS 3 Zrotation Xrotation Yrotation
          JOINT LeftForeArm
          {
            OFFSET 32.7669 0.099144 -1.42434
            CHANNELS 3 Zrotation Xrotation Yrotation
            JOINT LeftHand
            {
              OFFSET 27.5643 0.085362 1.02216
              CHANNELS 3 Zrotation Xrotation Yrotation
              End Site
              {
                OFFSET 16.7443 -0.6 1.50291
              }
            }
          }
        }
      }
      JOINT RightShoulder
      {
        OFFSET -8.99 -0.362252 -0.22
        CHANNELS 3 Zrotation Xrotation Yrotation
        JOINT RightArm
        {
          OFFSET -10.2827 -0.00338 0.322123
          CHANNELS 3 Zrotation Xrotation Yrotation
          JOINT RightForeArm
          {
            OFFSET -32.8971 0.099144 -1.42434
            CHANNELS 3 Zrotation Xrotation Yrotation
            JOINT RightHand
            {
              OFFSET -27.4921 0.085362 1.02216
              CHANNELS 3 Zrotation Xrotation Yrotation
              End Site
              {
                OFFSET -16.6312 -0.6 1.50291
              }
            }
          }
        }
      }
    }
  }
  JOINT LeftUpLeg
  {
    OFFSET 8.9458 -8.66707 0.101652
    CHANNELS 3 Zrotation Xrotation Yrotation
    JOINT LeftLeg
    {
      OFFSET 0 -44.4227 1.3727
      CHANNELS 3 Zrotation Xrotation Yrotation
      JOINT LeftFoot
      {
        OFFSET -0.253549 -42.0924 -1.46059
        CHANNELS 3 Zrotation Xrotation Yrotation
        JOINT LeftToes
        {
          OFFSET -0.04 -4.41509 8.4991
          CHANNELS 3 Zrotation Xrotation Yrotation
          End Site
          {
            OFFSET 0.08 -0.047448 9.77979
          }
        }
      }
    }
  }
}
MOTION
Frames:	18
Frame Time:	0.0166667
-1.79319 82.1265 -179.026 -17.2387 -9.37569 -55.3571 -20.2236 0.0203658 11.0404 10.7066 40.3058 -2.36404 13.0651 11.9676 -2.28 -27.3952 -25.5527 -5.65828 3.10254 15.9742 2.92855 7.10665 32.0072 4.4723 -0.00664202 -22.4842 24.1054 1.59028e-015 -1.59028e-015 -3.18055e-015 -54.857 -34.0353 -5.6168 -26.2465 35.9147 -94.2601 5.93021 8.49966 -26.0851 23.6498 5.55502 19.2086 69.1163 -29.1975 77.7682 40.1723 58.5544 82.6922 -14.9534 9.12048 2.01016 27.6042 -15.3011 -8.85325 -12.9129 52.4995 17.8705 -14.1546 6.91832 1.74612 -10.1237 -28.8724 -10.9265 
-1.36044 82.3087 -178.22 -17.3654 -8.8732 -55.4534 -20.7881 0.437077 11.8355 11.8732 38.8629 -1.76112 13.7695 10.5931 -2.24605 -24.695 -23.4489 -5.08449 3.53024 15.5391 2.331 7.91422 31.1053 3.22382 0.27549 -21.1525 24.8821 -1.76556e-031 -1.59028e-015 -6.36111e-015 -50.5025 -39.0595 -3.8602 -25.8832 36.9004 -95.4682 8.18621 7.90749 -25.848 26.1472 5.80608 18.3598 61.0003 -30.1005 72.1222 34.8297 57.0493 92.0022 -14.2183 9.64278 -2.11131 27.8298 -14.7623 -8.81924 -13.2278 52.078 17.7549 -14.9641 5.35419 1.65623 -9.92195 -28.6848 -10.3268 
-0.806884 82.8136 -177.349 -17.171 -8.27114 -56.089 -21.1219 0.471059 12.6901 11.8162 37.1044 -0.256552 14.7364 9.19665 -2.23178 -21.3274 -20.7238 -4.68248 3.74072 15.0178 1.74781 8.15952 30.0362 2.13316 0.397684 -19.9675 26.0222 4.77083e-015 -2.38542e-015 -0 -45.3052 -46.3241 -1.80772 -25.7305 38.4215 -95.7508 11.495 7.10891 -24.9351 28.5652 5.98822 17.4476 52.8018 -29.9729 65.4812 29.7713 55.099 100.777 -13.4037 10.0833 -5.99381 28.2005 -14.4022 -8.69706 -14.4509 51.4751 18.0323 -16.1386 4.83081 1.72121 -9.65807 -28.088 -10.1921 
-0.0327348 83.6334 -176.416 -16.727 -7.44526 -57.5836 -21.0887 -0.0382457 13.3573 10.2569 34.9989 2.43421 16.0795 7.90575 -2.25973 -17.5468 -17.5779 -4.57334 3.77797 14.46 1.24795 7.89404 28.9175 1.33304 0.302516 -19.2335 27.5691 -1.32417e-031 -2.38542e-015 -3.18055e-015 -38.7507 -55.4369 1.29662 -26.4916 40.3459 -94.2947 15.3943 6.28855 -23.4404 30.4282 6.0358 16.5375 45.7457 -28.2194 58.8811 25.5862 52.6775 107.685 -12.602 10.3669 -8.87765 28.861 -14.226 -8.16658 -16.3522 50.7888 18.5017 -17.4718 5.71259 1.99802 -9.46783 -27.4243 -10.5531 
1.00844 84.7167 -175.436 -16.0982 -6.35528 -60.0181 -20.7281 -1.1128 13.615 7.50018 32.4002 6.18135 17.9404 6.89275 -2.3651 -13.7294 -14.3522 -4.74356 3.64763 13.9129 0.861792 7.25509 27.843 0.816422 -0.0270086 -19.0464 29.5095 2.38542e-015 0 -6.36111e-015 -29.7028 -65.659 6.56132 -28.7241 42.2727 -90.0916 19.1805 5.63231 -21.7159 31.4361 5.97035 15.8099 40.6967 -24.9587 53.2693 22.4667 49.9351 112.202 -11.8767 10.4837 -10.3892 29.7883 -14.1611 -7.13728 -18.341 50.0372 18.6491 -18.7214 7.94632 2.49794 -9.38055 -26.8715 -11.2418 
2.28404 85.9766 -174.463 -15.3287 -5.05946 -63.2582 -20.169 -2.64261 13.3163 4.29475 29.1312 10.4258 20.2431 6.49192 -2.59603 -10.4458 -11.5687 -5.09188 3.25242 13.411 0.596969 6.38596 26.8712 0.486623 -0.512516 -19.2807 31.8493 -7.95139e-016 2.38542e-015 -0 -15.1543 -75.7156 16.8956 -31.8923 43.2859 -82.9602 22.0489 5.27344 -20.0798 31.5707 5.8809 15.4761 37.7968 -20.9492 49.1612 20.3084 47.2037 114.503 -11.3327 10.4738 -10.594 30.8298 -14.0889 -5.91167 -19.8362 49.1462 17.9659 -19.7814 11.026 3.15863 -9.32086 -26.3535 -12.039 
3.70665 87.2946 -173.583 -14.4898 -3.65949 -67.0064 -19.4629 -4.41483 12.3712 1.45824 25.2144 14.3312 22.6672 7.26894 -3.05349 -8.5376 -9.9644 -5.40698 2.46292 12.9654 0.426173 5.40918 26.0316 0.205454 -0.988995 -19.6808 34.6181 -1.59028e-015 -3.18055e-015 -0 18.9206 -83.7744 46.1718 -34.3386 42.4647 -73.8778 23.2488 5.28908 -18.71 31.0722 5.86129 15.6688 36.5632 -17.1821 46.6773 18.9601 44.9417 115.115 -11.1187 10.4009 -9.91079 31.8252 -13.9158 -5.11086 -20.5498 47.9934 16.2451 -20.6797 14.0827 3.84301 -9.17891 -25.6706 -12.8038 
5.1843 88.5248 -172.876 -13.7231 -2.24556 -70.8517 -18.5006 -6.14017 10.7186 -0.542215 21.069 17.0556 24.8274 9.76655 -3.87299 -8.90915 -10.2873 -5.39803 1.26319 12.5731 0.271286 4.42461 25.3466 -0.17879 -1.26755 -19.987 37.7481 7.95139e-016 0 9.54166e-015 107.121 -85.2364 128.656 -34.5904 39.5278 -63.8002 22.3173 5.66395 -17.8066 30.3712 5.97203 16.3728 36.1856 -14.4444 45.6973 18.2881 43.507 114.657 -11.3278 10.3135 -8.8435 32.6742 -13.6091 -5.34608 -20.4278 46.5114 13.6443 -21.4022 16.1657 4.36204 -8.89661 -24.7184 -13.4712 
6.66984 89.5042 -172.361 -13.2229 -0.862401 -74.3189 -17.087 -7.5985 8.39449 -1.74229 17.689 17.9984 26.373 13.7477 -5.0154 -11.8076 -12.7327 -4.99269 -0.0630365 12.2472 -0.00561403 3.5321 24.8508 -0.832221 -1.18316 -20.0109 40.9958 -7.95139e-016 -1.78906e-015 1.59028e-015 -13.4583 -87.8118 0.817798 -26.9876 24.7149 -58.9389 18.2838 6.6338 -16.7908 29.9484 6.23611 17.4227 35.8648 -13.1059 45.9392 18.129 42.978 113.686 -11.9292 10.2301 -7.73566 33.3202 -13.2385 -6.88574 -19.4456 44.8051 10.5583 -21.7748 16.6643 4.53399 -8.45277 -23.5329 -13.8208 
8.17244 90.1301 -171.994 -13.1382 0.416571 -76.9609 -15.2055 -8.81761 5.67272 -2.46527 16.5236 17.0146 26.7758 17.7853 -6.02154 -16.2043 -16.445 -4.57993 -1.11656 12.0463 -0.525473 2.78957 24.5932 -1.9191 -0.620929 -19.6257 44.0411 -7.95139e-016 2.98177e-015 -1.59028e-015 -22.0072 -69.7556 -17.4115 -16.8024 -2.83927 -52.0511 10.9486 8.06175 -16.2272 30.0961 6.63085 18.5544 35.1428 -13.1991 47.0255 18.3358 43.2356 112.585 -12.7948 10.1549 -6.76734 33.6301 -12.8909 -9.50805 -17.424 42.9338 7.32715 -21.7015 15.8388 4.36567 -7.87606 -22.2681 -13.5299 
9.71579 90.4041 -171.697 -13.5155 1.47666 -78.47 -13.1887 -9.93571 3.05316 -2.87207 18.6436 14.4482 25.4952 20.0791 -6.22704 -20.1893 -19.7834 -4.58074 -1.63869 12.0357 -1.32493 2.24724 24.6059 -3.52696 0.416645 -18.7496 46.6081 -7.95139e-016 4.96962e-017 -3.97569e-016 -10.9387 -50.3779 -17.8715 -6.59139 -29.1577 -36.2685 2.63806 9.55286 -16.3269 30.7284 7.06267 19.4806 34.0976 -14.6108 48.5918 18.8837 44.1474 111.517 -13.7085 10.0999 -6.10221 33.4428 -12.5735 -12.5684 -14.1354 40.6973 3.98594 -21.4454 14.8371 4.12933 -7.31109 -21.2169 -12.5833 
11.2733 90.355 -171.354 -14.2892 2.25765 -78.7802 -11.5873 -10.8559 1.04235 -2.58909 23.798 10.7322 22.8328 19.837 -5.51188 -22.3071 -21.5254 -4.88084 -1.53056 12.2107 -2.36027 1.9809 24.8576 -5.58266 1.73457 -17.4432 48.483 7.95139e-016 5.01621e-015 2.48481e-017 0.284309 -35.7431 -18.1165 4.78517 -44.1512 -13.243 -5.19261 10.9977 -17.1056 31.4115 7.37163 19.9749 33.2939 -17.1909 50.3925 19.86 45.6301 110.438 -14.3757 10.0744 -5.79856 32.7401 -12.2648 -15.2068 -9.68701 37.8935 0.376458 -21.352 14.8713 4.1167 -7.02228 -20.8749 -11.42 
12.7542 90.0056 -170.821 -15.2916 2.81605 -78.1519 -10.8115 -11.286 -0.0680448 -0.814991 30.6317 6.06032 19.9389 17.6985 -4.43752 -22.5156 -21.6933 -5.11106 -0.871084 12.4772 -3.49693 2.08557 25.2359 -7.81966 2.97548 -16.0024 49.5288 7.95139e-016 3.37934e-015 7.95139e-016 9.29239 -26.9007 -18.2771 6.37027 -48.5606 1.06274 -12.9104 12.6272 -18.6653 31.6194 7.40146 19.9329 33.391 -20.6238 52.3157 21.274 47.4849 109.259 -14.5749 10.0517 -5.58735 31.665 -11.9459 -16.642 -4.65807 34.6364 -3.43665 -21.4766 16.4556 4.43084 -7.37989 -21.9848 -10.846 
14.0629 89.4017 -169.963 -16.3119 3.32683 -77.1487 -10.8584 -11.0549 -0.24092 3.05953 37.6102 0.535563 17.7678 15.017 -3.54809 -21.8391 -21.1445 -5.13547 0.123239 12.7087 -4.50808 2.59862 25.5788 -9.79442 3.74912 -14.8289 49.7012 0 2.38542e-015 -0 14.6055 -20.8475 -18.3362 2.99358 -48.7329 5.37817 -18.8991 14.0586 -19.9189 31.0818 7.09899 19.3711 34.6136 -24.2914 54.2423 22.858 49.2927 108.172 -14.3301 10.0021 -5.18722 30.4618 -11.6394 -16.5619 0.101111 31.574 -6.82649 -21.5091 19.0522 4.91346 -8.70735 -25.0054 -11.6781 
15.1611 88.6632 -168.755 -17.1492 3.88735 -76.4837 -11.4519 -10.2189 0.385418 8.72829 43.5737 -5.51577 16.525 13.1043 -3.03512 -21.4663 -20.8406 -5.04506 0.967435 12.8384 -5.08473 3.30862 25.7492 -10.9614 3.81137 -14.1278 49.0086 1.59028e-015 -3.77691e-015 -1.59028e-015 15.3514 -16.8314 -18.5746 3.04946 -47.722 5.14675 -19.4199 14.3125 -20.7046 30.0549 6.57529 18.4082 36.5249 -27.5805 55.8783 24.1793 50.69 107.685 -13.8806 9.95185 -4.77484 29.3553 -11.3559 -15.3936 3.73906 29.6358 -8.72782 -20.7675 21.174 5.11201 -10.8538 -29.1406 -13.7852 
16.0758 87.9053 -167.278 -17.6822 4.4603 -76.7965 -12.287 -9.06537 1.58548 14.7948 48.2219 -11.4249 15.9979 12.7649 -2.89322 -22.2498 -21.4783 -4.98194 1.32798 12.8624 -4.9957 3.79569 25.7032 -10.8523 3.26154 -13.7284 47.5164 -1.59028e-015 5.56597e-015 -0 11.5139 -16.5451 -19.2518 6.29103 -45.1802 1.31856 -15.2694 13.4482 -21.0772 29.1829 6.04678 17.2715 38.3875 -30.381 56.8693 25.089 51.6951 108.069 -13.5064 9.9381 -4.66361 28.553 -11.1114 -13.9985 5.58067 29.6174 -8.39507 -18.7254 21.1793 4.58742 -12.9014 -32.6928 -15.652 
16.8696 87.1868 -165.689 -17.9118 4.88243 -78.4388 -13.2309 -7.91614 3.11605 19.5837 52.0394 -16.5614 15.9309 14.1174 -3.06009 -24.5166 -23.3057 -5.09001 1.17413 12.7986 -4.20039 3.6754 25.4904 -9.31067 2.58112 -13.2736 45.4521 -7.95139e-016 -7.20594e-015 -0 3.99195 -21.2103 -20.3642 -0.00645189 -39.909 -14.3941 -11.4233 12.6702 -21.8057 28.8919 5.66863 16.2296 39.8708 -33.0456 57.1276 25.9038 52.6302 108.946 -13.3816 9.95172 -4.79173 28.1986 -10.7573 -12.9069 5.27686 31.3004 -6.03438 -16.0779 18.8257 3.59174 -13.9564 -34.6728 -16.1053 
17.6249 86.5084 -164.156 -17.9735 4.99723 -81.2699 -14.2769 -6.88707 4.76736 22.1965 55.6342 -20.7465 16.0002 16.5807 -3.4015 -27.8634 -25.9287 -5.52883 0.721485 12.6766 -2.88989 2.8592 25.205 -6.63441 2.32081 -12.6064 43.2239 1.59028e-015 4.96962e-017 7.95139e-016 -5.5291 -28.6039 -21.6688 -8.88344 -30.9369 -30.5653 -10.5969 12.7125 -24.0631 29.1077 5.46296 15.4537 41.1441 -35.8 56.8436 26.9571 53.7034 109.737 -13.4954 9.9638 -4.89715 28.3138 -10.1116 -12.1263 2.9367 33.6123 -2.57872 -14.1917 15.4224 2.74936 -14.1296 -35.2654 -15.7309 
